<svg width="30" height="30" viewBox="0 0 30 30" fill="none" xmlns="http://www.w3.org/2000/svg">
<path d="M18.8936 7.91016H5.18842C4.94572 7.91016 4.74897 8.10691 4.74897 8.34961C4.74897 8.5923 4.94572 8.78906 5.18842 8.78906H18.8936C19.1363 8.78906 19.333 8.5923 19.333 8.34961C19.333 8.10691 19.1363 7.91016 18.8936 7.91016ZM18.6006 2.63672H15.6932C15.4505 2.63672 15.2538 2.83348 15.2538 3.07617C15.2538 3.31887 15.4505 3.51562 15.6932 3.51562H18.4542V5.27344H5.62787V3.51562H13.6424C13.8851 3.51562 14.0818 3.31887 14.0818 3.07617C14.0818 2.83348 13.8851 2.63672 13.6424 2.63672H5.48139C5.0775 2.63672 4.74897 2.96525 4.74897 3.36914V5.41992C4.74897 5.82381 5.0775 6.15234 5.48139 6.15234H18.6006C19.0045 6.15234 19.333 5.82381 19.333 5.41992V3.36914C19.3331 2.96525 19.0045 2.63672 18.6006 2.63672ZM18.8936 9.66797H5.18842C4.94572 9.66797 4.74897 9.86473 4.74897 10.1074C4.74897 10.3501 4.94572 10.5469 5.18842 10.5469H18.8936C19.1363 10.5469 19.333 10.3501 19.333 10.1074C19.333 9.86473 19.1363 9.66797 18.8936 9.66797ZM18.8936 13.1836H13.9775C13.7348 13.1836 13.5381 13.3804 13.5381 13.623C13.5381 13.8657 13.7348 14.0625 13.9775 14.0625H18.8936C19.1363 14.0625 19.3331 13.8657 19.3331 13.623C19.3331 13.3804 19.1363 13.1836 18.8936 13.1836ZM18.8936 11.4258H13.9775C13.7348 11.4258 13.5381 11.6225 13.5381 11.8652C13.5381 12.1079 13.7348 12.3047 13.9775 12.3047H18.8936C19.1363 12.3047 19.3331 12.1079 19.3331 11.8652C19.3331 11.6225 19.1363 11.4258 18.8936 11.4258ZM24.082 18.1369V17.1387C24.082 16.0757 23.3233 15.1868 22.3189 14.9847V2.19727C22.3189 0.985664 21.3333 0 20.1217 0H3.96035C2.74875 0 1.76309 0.985664 1.76309 2.19727V11.4691C0.75873 11.6712 0 12.5601 0 13.623V19.8586C0 20.1013 0.196758 20.298 0.439453 20.298C0.682148 20.298 0.878906 20.1013 0.878906 19.8586V13.623C0.878906 12.8961 1.47029 12.3047 2.19727 12.3047H10.7719C11.2701 12.3047 11.7028 12.6424 11.8239 13.1254L12.1256 14.3336C12.3442 15.2089 13.1272 15.8203 14.0297 15.8203H21.8848C22.6117 15.8203 23.2031 16.4117 23.2031 17.1387V18.2C20.3411 18.6201 18.1367 21.0915 18.1367 24.0683C18.1367 26.202 19.2693 28.0758 20.9646 29.121H2.19727C1.47029 29.1211 0.878906 28.5297 0.878906 27.8027V21.9094C0.878906 21.6667 0.682148 21.4699 0.439453 21.4699C0.196758 21.4699 0 21.6667 0 21.9094V27.8027C0 29.0143 0.985664 30 2.19727 30H21.8848C22.1699 30 22.4445 29.9462 22.7036 29.8413C23.142 29.9449 23.5988 30 24.0684 30C27.3391 30 30 27.3391 30 24.0684C30 20.8022 27.3465 18.1443 24.082 18.1369ZM21.44 14.9414H14.0297C13.5313 14.9414 13.099 14.6039 12.9783 14.1207L12.6765 12.9121C12.4571 12.037 11.6739 11.4258 10.7719 11.4258H2.64199V2.19727C2.64199 1.47029 3.23338 0.878906 3.96035 0.878906H20.1217C20.8487 0.878906 21.44 1.47029 21.44 2.19727V14.9414ZM24.0684 29.1211C21.2823 29.1211 19.0157 26.8545 19.0157 24.0684C19.0157 21.2823 21.2823 19.0157 24.0684 19.0157C26.8545 19.0157 29.1211 21.2822 29.1211 24.0684C29.1211 26.8545 26.8545 29.1211 24.0684 29.1211ZM26.1795 24.7847H25.5293V21.2944C25.5293 20.8694 25.1835 20.5236 24.7584 20.5236H23.3783C22.9533 20.5236 22.6075 20.8694 22.6075 21.2944V24.7847H21.9572C21.6636 24.7847 21.4012 24.9601 21.2888 25.2314C21.1764 25.5028 21.2379 25.8122 21.4457 26.0199L23.5233 28.0976C23.6736 28.2479 23.871 28.323 24.0684 28.323C24.2658 28.323 24.4632 28.2479 24.6135 28.0976L26.6912 26.0199C26.8989 25.8122 26.9604 25.5028 26.8481 25.2314C26.7356 24.9601 26.4732 24.7847 26.1795 24.7847ZM24.0684 27.3997L22.3324 25.6637H22.7155C23.1405 25.6637 23.4864 25.3179 23.4864 24.8929V21.4025H24.6504V24.8929C24.6504 25.3179 24.9962 25.6637 25.4212 25.6637H25.8044L24.0684 27.3997ZM16.849 20.975C17.0917 20.975 17.2884 20.7783 17.2884 20.5356C17.2884 20.2929 17.0917 20.0961 16.849 20.0961H15.2687C15.026 20.0961 14.8293 20.2929 14.8293 20.5356V24.4345C14.8293 24.6772 15.026 24.874 15.2687 24.874C15.5114 24.874 15.7082 24.6772 15.7082 24.4345V22.8876H16.7235C16.9662 22.8876 17.1629 22.6908 17.1629 22.4481C17.1629 22.2054 16.9662 22.0087 16.7235 22.0087H15.7082V20.975H16.849ZM11.0927 24.874H11.0943C11.127 24.8739 11.8964 24.8709 12.2037 24.8656C13.3275 24.846 14.1431 23.8632 14.1431 22.5288C14.1431 21.1261 13.3479 20.1836 12.1645 20.1836H11.0849C10.9682 20.1836 10.8564 20.23 10.7739 20.3126C10.6915 20.3953 10.6453 20.5072 10.6455 20.6239V20.627V24.3728C10.6466 24.6239 10.8388 24.876 11.0927 24.874ZM12.1645 21.0625C12.9753 21.0625 13.2642 21.8199 13.2642 22.5288C13.2642 23.523 12.7239 23.9774 12.1884 23.9868C12.0379 23.9894 11.7661 23.9915 11.5306 23.9929C11.5291 23.5421 11.526 21.5312 11.5252 21.0624H12.1645V21.0625ZM7.6725 24.4346V23.1656C7.90523 23.1643 8.17553 23.1631 8.32676 23.1631C9.19225 23.1631 9.89631 22.4687 9.89631 21.6152C9.89631 20.7618 9.19219 20.0674 8.32676 20.0674H7.23305C7.01578 20.063 6.78445 20.2598 6.79359 20.5068V24.4345C6.79359 24.6772 6.99035 24.874 7.23305 24.874C7.47574 24.874 7.6725 24.6773 7.6725 24.4346ZM8.3267 20.9463C8.70105 20.9463 9.01734 21.2526 9.01734 21.6152C9.01734 21.9779 8.70105 22.2842 8.3267 22.2842C8.17658 22.2842 7.90963 22.2854 7.67766 22.2866C7.67643 22.0473 7.67449 21.1965 7.67379 20.9463H8.3267Z" fill="white"/>
</svg>
