<svg width="24" height="30" viewBox="0 0 24 30" fill="none" xmlns="http://www.w3.org/2000/svg">
<path d="M23.3537 6.30362L22.9549 5.90483L17.7333 0.683276L17.3345 0.284483C17.154 0.103966 16.9037 0 16.6477 0H1.63627C1.02282 0 0.362305 0.473793 0.362305 1.51345V20.1724V28.726V28.9655C0.362305 29.3984 0.797822 29.8205 1.31299 29.9534C1.33886 29.9602 1.36368 29.97 1.39058 29.9752C1.47127 29.9912 1.55351 30 1.63627 30H22.3642C22.447 30 22.5292 29.9912 22.6099 29.9752C22.6368 29.97 22.6616 29.9602 22.6875 29.9534C23.2027 29.8205 23.6382 29.3984 23.6382 28.9655V28.726V20.1724V7.23C23.6382 6.83328 23.5906 6.54052 23.3537 6.30362ZM21.7942 6.2069H17.4313V1.84397L21.7942 6.2069ZM1.63627 28.9655C1.59955 28.9655 1.56644 28.9521 1.53386 28.9402C1.45317 28.9019 1.39679 28.8212 1.39679 28.726V21.2069H22.6037V28.726C22.6037 28.8212 22.5473 28.9014 22.4666 28.9402C22.434 28.9521 22.4009 28.9655 22.3642 28.9655H1.63627ZM1.39679 20.1724V1.51345C1.39679 1.40121 1.41386 1.03448 1.63627 1.03448H16.4268C16.4097 1.09966 16.3968 1.1669 16.3968 1.23672V7.24138H22.4014C22.4713 7.24138 22.538 7.22845 22.6032 7.21138C22.6032 7.21914 22.6037 7.22224 22.6037 7.23V20.1724H1.39679Z" fill="#212529"/>
<path d="M8.40096 23.1434C8.22872 23.0022 8.03424 22.8956 7.81751 22.8253C7.60079 22.7544 7.38148 22.7192 7.1601 22.7192H5.66113V27.931H6.50993V26.0498H7.13941C7.41251 26.0498 7.66286 26.0099 7.88889 25.9298C8.11493 25.8496 8.30837 25.7363 8.46872 25.5904C8.62906 25.4446 8.75372 25.2641 8.84372 25.0494C8.9332 24.8348 8.9782 24.5958 8.9782 24.3315C8.9782 24.0817 8.92493 23.8567 8.81889 23.656C8.71286 23.4553 8.5732 23.2851 8.40096 23.1434ZM8.07924 24.8653C8.02699 25.0091 7.95924 25.1208 7.87441 25.201C7.78958 25.2811 7.69648 25.3391 7.5951 25.3742C7.49372 25.4094 7.39079 25.4275 7.28734 25.4275H6.50941V23.3627H7.14561C7.36234 23.3627 7.53665 23.3968 7.66906 23.4651C7.80096 23.5334 7.90337 23.6182 7.97682 23.7196C8.04975 23.821 8.09786 23.927 8.12165 24.0377C8.14493 24.1484 8.15682 24.2461 8.15682 24.331C8.15682 24.5436 8.13096 24.7215 8.07924 24.8653Z" fill="#212529"/>
<path d="M13.5281 23.4827C13.3087 23.252 13.0331 23.0663 12.7005 22.9277C12.3679 22.7891 11.9825 22.7192 11.5444 22.7192H9.97461V27.931H11.9474C12.0131 27.931 12.1144 27.9227 12.2515 27.9061C12.3881 27.8896 12.5391 27.8523 12.7041 27.7929C12.8691 27.7339 13.0398 27.6454 13.2167 27.5275C13.3936 27.4096 13.5524 27.2482 13.6941 27.0429C13.8358 26.8375 13.9522 26.583 14.0443 26.2789C14.1363 25.9748 14.1824 25.608 14.1824 25.1792C14.1824 24.8679 14.1281 24.5648 14.02 24.2704C13.9108 23.9767 13.7474 23.7139 13.5281 23.4827ZM12.9094 26.7568C12.655 27.1246 12.2401 27.3082 11.665 27.3082H10.8234V23.3622H11.3184C11.7239 23.3622 12.0539 23.4154 12.3084 23.5215C12.5629 23.6275 12.7646 23.7667 12.9131 23.9389C13.0615 24.1111 13.1613 24.303 13.2136 24.5151C13.2653 24.7272 13.2912 24.9418 13.2912 25.1585C13.2912 25.8563 13.1639 26.3896 12.9094 26.7568Z" fill="#212529"/>
<path d="M15.4131 27.931H16.2758V25.5832H18.4539V25.0034H16.2758V23.3627H18.6727V22.7192H15.4131V27.931Z" fill="#212529"/>
<path d="M16.8772 11.8764C16.4019 11.8764 15.8184 11.9385 15.1403 12.0616C14.1938 11.0571 13.2058 9.59022 12.5086 8.15022C13.2002 5.23867 12.8541 4.82642 12.7015 4.63194C12.5391 4.42505 12.31 4.08936 12.0493 4.08936C11.9402 4.08936 11.6422 4.13901 11.5238 4.17832C11.2258 4.27763 11.0655 4.50729 10.9372 4.80677C10.5715 5.66177 11.0733 7.11936 11.5895 8.24281C11.1483 9.99781 10.4081 12.0983 9.63016 13.8032C7.66981 14.7011 6.6286 15.583 6.53447 16.4245C6.50033 16.7307 6.57274 17.1802 7.11119 17.5842C7.2586 17.6944 7.43136 17.7528 7.61136 17.7528C8.06395 17.7528 8.52119 17.4063 9.05033 16.663C9.43619 16.1209 9.8505 15.3818 10.2829 14.4642C11.6681 13.8585 13.3817 13.3113 14.8491 13.0045C15.6664 13.7892 16.3983 14.1864 17.0272 14.1864C17.4907 14.1864 17.8879 13.9733 18.1755 13.5704C18.475 13.1509 18.5433 12.7754 18.3772 12.4532C18.1781 12.0657 17.6872 11.8764 16.8772 11.8764ZM7.62274 16.8797C7.38067 16.694 7.39464 16.5688 7.39981 16.5218C7.43188 16.2342 7.8824 15.7237 8.98774 15.1025C8.14981 16.65 7.69981 16.8554 7.62274 16.8797ZM11.8641 5.02349C11.8864 5.01625 12.4046 5.59298 11.9138 6.68694C11.1762 5.93229 11.8134 5.04056 11.8641 5.02349ZM10.795 13.3128C11.32 12.0616 11.8083 10.68 12.1781 9.40039C12.7589 10.4442 13.4567 11.4569 14.155 12.268C13.0512 12.5271 11.876 12.8928 10.795 13.3128ZM17.4679 13.065C17.3086 13.288 16.9631 13.2932 16.8421 13.2932C16.5664 13.2932 16.4634 13.1292 16.0419 12.8049C16.3895 12.7604 16.7174 12.749 16.9786 12.749C17.4384 12.749 17.5227 12.8168 17.5864 12.8509C17.575 12.8876 17.545 12.9569 17.4679 13.065Z" fill="#212529"/>
</svg>
