<svg width="30" height="30" viewBox="0 0 30 30" fill="none" xmlns="http://www.w3.org/2000/svg">
<path d="M14.9987 0.000976562C6.72817 0.000976562 0 6.72914 0 14.9997C0 23.2703 6.72817 29.9985 14.9987 29.9985C18.3334 29.9985 21.4907 28.9273 24.1604 26.8737C25.2204 25.9438 25.2016 24.6164 24.7117 23.714C24.4017 23.1428 23.9292 22.7515 23.3805 22.5591L23.6317 22.2779C24.0067 21.8567 24.1717 21.2954 24.0829 20.7393C23.9955 20.1831 23.6655 19.6994 23.1793 19.4131L19.8783 17.4808C19.1296 17.0433 18.1072 17.2045 17.531 17.852L16.7986 18.6757C16.6786 18.8107 16.5124 18.8857 16.3324 18.8857C16.1187 18.8857 15.9287 18.7832 15.8112 18.6057L11.7878 12.5349C11.6853 12.3812 11.6578 12.1975 11.7078 12.02C11.7578 11.8413 11.8778 11.7013 12.0465 11.6238L13.1977 11.0888C14.0064 10.7151 14.4413 9.8139 14.2326 8.94896L13.3364 5.23179C13.0689 4.12065 11.7715 3.48443 10.7254 3.97066L9.69797 4.44687C8.17935 5.15181 7.06071 6.48295 6.62821 8.1003L6.44073 8.80524C6.10203 10.0739 6.2195 11.4288 6.77193 12.6199L7.69558 14.6122C9.05045 17.5357 10.9003 20.1655 13.1926 22.4303L13.955 23.1828C15.0874 24.3014 16.5861 24.9463 18.1772 24.9976L18.3834 25.0014C19.7608 25.0014 21.0882 24.5451 22.1718 23.729C22.1931 23.7252 22.2143 23.7302 22.2368 23.724C23.0868 23.4865 23.5067 24.114 23.6142 24.3115C23.8666 24.779 23.8792 25.4614 23.3692 25.9114C20.9519 27.7687 18.0584 28.7511 15.0011 28.7511C7.42051 28.7511 1.25228 22.5829 1.25228 15.0022C1.25228 7.4216 7.42063 1.25337 15.0013 1.25337C22.5819 1.25337 28.7501 7.4216 28.7501 15.0022C28.7501 15.3472 29.0301 15.6272 29.3751 15.6272C29.7201 15.6272 30.0001 15.3472 30.0001 15.0022C29.9975 6.7292 23.268 0.000976562 14.9987 0.000976562Z" fill="white"/>
</svg>
