<svg width="20" height="16" viewBox="0 0 20 16" fill="none" xmlns="http://www.w3.org/2000/svg">
<path d="M0 7.90569C0 8.39078 0.393178 8.78396 0.878268 8.78396H17.0282L11.4879 14.3191C11.3194 14.4876 11.2326 14.7123 11.2326 14.9369C11.2326 15.1616 11.3194 15.3863 11.4879 15.5548C11.8301 15.8969 12.3866 15.8969 12.7288 15.5548L19.7549 8.52354C20.0817 8.19674 20.0817 7.61463 19.7549 7.28273L12.7237 0.256587C12.3815 -0.085529 11.825 -0.085529 11.4828 0.256587C11.1407 0.598703 11.1407 1.15528 11.4828 1.4974L17.018 7.03253H0.873161C0.388071 7.02742 0 7.4206 0 7.90569Z" fill="#0C4B35"/>
</svg>
