<svg width="17" height="17" viewBox="0 0 17 17" fill="none" xmlns="http://www.w3.org/2000/svg">
<mask id="mask0_2599_24158" style="mask-type:alpha" maskUnits="userSpaceOnUse" x="0" y="0" width="17" height="17">
<rect x="0.343262" y="0.17627" width="16" height="16" fill="#C4C4C4"/>
</mask>
<g mask="url(#mask0_2599_24158)">
<path d="M16.3433 3.21527C15.7483 3.47627 15.1143 3.64927 14.4533 3.73327C15.1333 3.32727 15.6523 2.68927 15.8963 1.92027C15.2623 2.29827 14.5623 2.56527 13.8163 2.71427C13.2143 2.07327 12.3563 1.67627 11.4203 1.67627C9.60426 1.67627 8.14226 3.15027 8.14226 4.95727C8.14226 5.21727 8.16426 5.46727 8.21826 5.70527C5.49126 5.57227 3.07826 4.26527 1.45726 2.27427C1.17426 2.76527 1.00826 3.32727 1.00826 3.93227C1.00826 5.06827 1.59326 6.07527 2.46526 6.65827C1.93826 6.64827 1.42126 6.49527 0.983262 6.25427C0.983262 6.26427 0.983262 6.27727 0.983262 6.29027C0.983262 7.88427 2.12026 9.20827 3.61126 9.51327C3.34426 9.58627 3.05326 9.62127 2.75126 9.62127C2.54126 9.62127 2.32926 9.60927 2.13026 9.56527C2.55526 10.8643 3.76126 11.8193 5.19526 11.8503C4.07926 12.7233 2.66226 13.2493 1.12826 13.2493C0.859262 13.2493 0.601262 13.2373 0.343262 13.2043C1.79626 14.1413 3.51826 14.6763 5.37526 14.6763C11.4113 14.6763 14.7113 9.67627 14.7113 5.34227C14.7113 5.19727 14.7063 5.05727 14.6993 4.91827C15.3503 4.45627 15.8973 3.87927 16.3433 3.21527Z" fill="white"/>
</g>
</svg>
